<?xml version="1.0" encoding="utf-8"?>
<!-- Generator: Adobe Illustrator 16.0.0, SVG Export Plug-In . SVG Version: 6.00 Build 0)  -->
<!DOCTYPE svg PUBLIC "-//W3C//DTD SVG 1.1//EN" "http://www.w3.org/Graphics/SVG/1.1/DTD/svg11.dtd">
<svg version="1.1" id="Layer_1" xmlns="http://www.w3.org/2000/svg" xmlns:xlink="http://www.w3.org/1999/xlink" x="0px" y="0px"
	 width="433.452px" height="81.41px" viewBox="0 0 433.452 81.41" enable-background="new 0 0 433.452 81.41" xml:space="preserve">
<g>
	<path d="M36.881,16.245H14.303v16.243h18.083v11.647H14.303v31.568H0V4.7h38.516L36.881,16.245z"/>
	<path d="M66.173,35.349c-1.328-0.714-2.452-1.021-3.985-1.021c-3.064,0-5.823,1.43-8.377,4.393v36.983h-13.69v-34.94
		c0-7.049-0.817-12.361-1.941-15.324l12.26-3.27c1.226,2.146,1.941,4.495,2.146,7.458c2.963-3.984,7.151-7.458,12.26-7.458
		c2.043,0,2.963,0.204,5.108,1.125L66.173,35.349z"/>
	<path d="M110.042,69.574c-3.985,4.495-9.195,7.254-17.266,7.254c-14.201,0-23.498-10.626-23.498-27.073
		c0-16.45,9.399-27.381,23.498-27.381c7.458,0,13.281,2.554,17.777,7.867c4.188,4.903,6.028,10.625,6.028,19.104
		C116.581,58.336,114.537,64.465,110.042,69.574z M98.906,35.247c-1.328-1.737-3.474-2.759-5.925-2.759
		c-3.27,0-5.926,2.044-7.049,5.312c-0.919,2.76-1.43,6.437-1.43,11.647c0,6.027,0.613,10.522,1.736,13.179
		c1.227,2.86,4.291,4.291,6.948,4.291c5.925,0,8.479-5.313,8.479-17.675C101.665,42.193,100.745,37.598,98.906,35.247z"/>
	<path d="M152.175,75.704V41.684c0-5.926-1.021-7.662-4.598-7.662c-2.758,0-6.334,1.839-9.5,4.699v36.983h-13.69V37.801
		c0-4.496-0.613-8.785-1.839-12.26l12.158-3.474c1.226,2.146,1.941,4.393,1.941,6.539c2.043-1.43,3.78-2.656,6.027-3.882
		c2.758-1.43,6.335-2.248,9.399-2.248c5.823,0,10.932,3.064,12.566,7.559c0.715,1.942,1.021,4.19,1.021,7.46v38.209H152.175z"/>
	<path d="M191.948,76.93c-6.947,0-12.463-3.064-14.098-7.663c-0.817-2.246-0.92-3.27-0.92-8.07V32.795h-5.21v-9.399h5.21
		c0-5.107,0-8.479,0.511-12.361l13.894-3.473c-0.511,4.801-0.817,10.521-0.817,15.834h12.259l-3.473,9.399h-8.787v26.256
		c0,6.64,1.226,8.377,5.925,8.377c1.226,0,2.452-0.307,4.903-1.021l1.737,8.172C199.1,76.215,195.524,76.93,191.948,76.93z"/>
	<path d="M221.873,76.93c-5.823,0-10.523-2.758-12.158-7.151c-1.021-2.657-1.226-4.291-1.226-11.749V19.002
		c0-6.845-0.204-11.033-0.715-15.733l13.998-3.166c0.51,2.86,0.714,6.231,0.714,13.587v40.765c0,8.99,0.103,10.216,0.919,11.647
		c0.512,0.919,1.637,1.429,2.76,1.429c0.51,0,0.817,0,1.531-0.203l2.351,8.171C227.695,76.419,224.835,76.93,221.873,76.93z"/>
	<path d="M245.616,53.841v0.409c0,8.07,3.984,12.668,11.033,12.668c4.7,0,9.094-1.737,13.282-5.211l5.313,8.174
		c-6.028,4.903-12.363,7.254-19.719,7.254c-15.018,0-24.725-10.626-24.725-27.073c0-9.4,1.942-15.632,6.539-20.74
		c4.291-4.801,9.501-7.05,16.448-7.05c6.028,0,11.749,2.044,15.121,5.518c4.801,4.903,6.947,11.953,6.947,22.885v3.167H245.616z
		 M261.656,43.217c0-3.884-0.409-5.926-1.635-7.868c-1.328-2.044-3.27-3.064-6.026-3.064c-5.211,0-8.174,4.088-8.174,11.34v0.205
		h15.835V43.217z"/>
	<path d="M318.91,78.36c-3.168-1.328-6.028-3.679-7.356-6.335c-1.021,1.021-2.145,2.044-3.167,2.759
		c-2.554,1.839-6.231,2.86-10.522,2.86c-11.646,0-17.981-5.926-17.981-16.346c0-12.261,8.479-17.981,25.133-17.981
		c1.021,0,1.94,0,3.065,0.103v-2.146c0-5.823-1.125-7.765-6.13-7.765c-4.394,0-9.501,2.146-15.12,5.926l-5.823-9.808
		c2.758-1.737,4.801-2.758,8.479-4.291c5.107-2.146,9.501-3.065,14.303-3.065c8.785,0,14.813,3.27,16.855,9.094
		c0.716,2.145,1.022,3.779,0.921,9.398l-0.307,17.572c-0.103,5.722,0.307,8.173,4.903,11.647L318.91,78.36z M307.262,52.819
		c-9.501,0-12.771,1.737-12.771,7.969c0,4.086,2.555,6.845,6.028,6.845c2.554,0,5.107-1.328,7.151-3.575l0.203-11.238H307.262z"/>
	<path d="M357.712,11.75c-2.963-1.431-3.984-1.737-5.619-1.737c-3.474,0-5.722,2.145-5.722,5.926v7.457h13.282l-3.475,9.399h-9.705
		v42.909H333.09V32.795h-4.698v-9.399h5.005c-0.307-2.145-0.511-4.801-0.511-7.15C332.886,5.926,339.016,0,349.743,0
		c4.495,0,8.174,0.92,12.362,3.269L357.712,11.75z"/>
</g>
<path d="M353.664,70.139c0.235-0.021,1.686-0.172,2.158-0.224c4.379,2.396,15.218,9.821,20.766,10.821
	c8.901,1.604,18.323,0.373,25.978-4.021c10.104-5.8,19.48-18.567,24.64-30.075c2.503-5.58,3.868-11.842,4.697-18.2
	c0.185-1.414,2.105-17.703,1.392-18.031c-1.782-0.815-3.595-1.502-5.423-2.06c-0.263-0.082-0.52-0.155-0.781-0.23
	c-9.086-2.571-18.563-1.994-26.748,1.764c-4.993,2.288-9.502,5.714-13.23,10.043l-2.348,2.704c0.798-3.633,0.125-6.145,2.429-10.896
	c-6.376,2.96-12.219,7.187-17.221,12.456c-10.24,10.79-17.696,25.36-17.567,42.271l-0.327,0.009l-11.029-1.979
	c-0.537,5.999,6.757,6.119,11.497,5.747L353.664,70.139z M403.862,41.039c-3.224,4.125-6.997,7.794-11.085,11.061
	c-8.305,6.622-19.52,12.121-30.19,13.314c19.47-5.832,36.792-22.938,49.548-37.876C408.87,31.364,407.054,36.95,403.862,41.039z"/>
</svg>
